<svg width="14" height="14" viewBox="0 0 14 14" fill="none" xmlns="http://www.w3.org/2000/svg">
<g clip-path="url(#clip0_763_75)">
<path fill-rule="evenodd" clip-rule="evenodd" d="M13.1336 3.15521L6.6336 9.95521L6.57835 10.0245C6.45066 10.2185 6.4799 10.4794 6.65978 10.6416C6.86213 10.8242 7.1785 10.8128 7.3664 10.6162L13.8664 3.81622L13.9216 3.74692C14.0493 3.55289 14.0201 3.29204 13.8402 3.12979C13.6379 2.94726 13.3215 2.95864 13.1336 3.15521ZM9.63521 3.15354L3.43573 9.5784L0.862149 6.95215L0.794346 6.8943C0.602859 6.75855 0.333042 6.77083 0.155256 6.93524C-0.0447525 7.1202 -0.0525441 7.42764 0.137853 7.62194L3.07639 10.6206L3.14702 10.6805C3.34667 10.82 3.62866 10.7989 3.80333 10.6179L10.3648 3.81789L10.4204 3.74884C10.549 3.5554 10.521 3.29441 10.3419 3.13134C10.1405 2.94789 9.82405 2.95783 9.63521 3.15354Z" fill="#8E8E93"/>
</g>
<defs>
<clipPath id="clip0_763_75">
<rect width="14" height="14" fill="white"/>
</clipPath>
</defs>
</svg>
