<svg width="31" height="30" viewBox="0 0 31 30" fill="none" xmlns="http://www.w3.org/2000/svg">
<path d="M22.835 17.483L17.3021 23.0158C14.6506 25.6673 10.3517 25.6673 7.70014 23.0158C5.04863 20.3643 5.04863 16.0654 7.70014 13.4139L15.1478 5.96619C16.9168 4.19717 19.785 4.19717 21.554 5.96619C23.323 7.73521 23.323 10.6034 21.554 12.3724L13.8717 20.0547C13.0406 20.8858 11.693 20.8858 10.8618 20.0547C10.0307 19.2235 10.0307 17.876 10.8618 17.0448L16.6293 11.2773C16.9222 10.9844 16.9222 10.5096 16.6293 10.2167C16.3364 9.92378 15.8616 9.92378 15.5687 10.2167L9.80119 15.9842C8.38425 17.4011 8.38425 19.6984 9.80119 21.1153C11.2181 22.5323 13.5154 22.5323 14.9324 21.1153L22.6147 13.433C24.9695 11.0782 24.9695 7.26034 22.6147 4.90553C20.2598 2.55072 16.442 2.55072 14.0871 4.90553L6.63948 12.3532C3.40218 15.5905 3.40218 20.8392 6.63948 24.0765C9.87678 27.3138 15.1255 27.3138 18.3628 24.0765L23.8956 18.5436C24.1885 18.2507 24.1885 17.7759 23.8956 17.483C23.6027 17.1901 23.1279 17.1901 22.835 17.483Z" fill="#7F7F7F"/>
</svg>
