<svg width="29" height="26" viewBox="0 0 29 26" fill="none" xmlns="http://www.w3.org/2000/svg">
<path fill-rule="evenodd" clip-rule="evenodd" d="M12.1221 21.4544C18.4752 20.9336 23.4998 16.0338 23.4998 10.0002C23.4998 7.53122 22.6585 5.25214 21.2291 3.38525C25.7284 4.50214 28.9998 7.98503 28.9998 13.0002C28.9998 15.6776 27.9884 17.9138 25.9654 19.7086C25.7454 19.9039 25.5522 20.1274 25.3909 20.3733C24.4177 21.8569 24.7819 23.8304 26.1886 24.8744L26.3492 24.9865L26.0891 25.0336C24.0167 25.3649 22.1432 24.6028 20.4687 22.7473C19.6751 22.9127 18.8487 23.0002 17.9998 23.0002C15.8383 23.0002 13.8224 22.4334 12.1221 21.4544Z" fill="white"/>
<path fill-rule="evenodd" clip-rule="evenodd" d="M11 0C17.0751 0 22 4.47715 22 10C22 15.5228 17.0751 20 11 20C10.1511 20 9.32475 19.9126 8.5311 19.7471C6.7869 21.6799 4.82667 22.4264 2.6506 21.9863C4.49443 20.7768 4.3712 17.7738 2.813 16.2135C1.31385 14.7122 0 12.6427 0 10C0 3.84667 4.92487 0 11 0Z" fill="white"/>
</svg>
